<svg xmlns="http://www.w3.org/2000/svg" width="1618" height="345" viewBox="0 0 1618 345">
  <defs>
    <style>
      .cls-1 {
        fill: #a89f95;
        fill-rule: evenodd;
      }
    </style>
  </defs>
  <path id="símbolo_copy_2" data-name="símbolo copy 2" class="cls-1" d="M8.648,189.955h16.04l8.341-20.986H92.538l8.18,20.986h16.361L72.327,77.817H54.2Zm30-35.4L63.024,93.356l23.9,61.195H38.643Zm90.3,35.4h14.918V147.342c0-16.98,11.709-28.514,25.5-28.514,14.436,0,23.579,9.932,23.579,27.713v43.414h14.917V147.342c0-16.98,11.71-28.514,25.5-28.514,14.436,0,23.579,9.932,23.579,27.713v43.414h14.918V145.74c0-25.631-12.993-40.529-33.043-40.529-14.757,0-28.07,9.451-32.4,25.471H206.1c-4.171-16.34-15.559-25.471-31.279-25.471-14.757,0-28.07,9.451-32.4,25.311H142.1l1.765-23.068H128.943v82.5ZM317.731,192.2c17.484,0,30.637-9.291,35.61-25.31h0.32l-1.6,23.068h14.918v-48.54c0-23.228-14.115-36.2-37.7-36.2-10.747,0-22.937,2.563-36.09,7.689v14.738c12.511-5.767,24.381-8.81,34.486-8.81,15.88,0,24.381,7.368,24.381,21.145H321.581c-21.654,0-34.326,9.612-34.326,26.113C287.255,182.105,299.125,192.2,317.731,192.2Zm2.406-13.456c-11.228,0-17.483-4.806-17.483-13.617s6.416-13.456,18.446-13.456h30.957v2.082C352.057,167.207,337.14,178.741,320.137,178.741Zm101.213,45.5c29.033,0,44.913-12.5,44.913-28.515,0-14.258-14.115-22.908-29.835-24.19v-0.32c15.238-.8,28.231-13.617,28.231-31.719,0-12.816-6.737-23.068-17.965-29,7.86-2.563,12.832-8.17,12.832-15.058,0-9.452-8.982-15.539-23.1-15.539a72.406,72.406,0,0,0-16.842,2.4V95.279a41.825,41.825,0,0,1,12.992-2.243c8.341,0,12.672,3.044,12.672,8.811a10.009,10.009,0,0,1-2.727,6.728,57.787,57.787,0,0,0-19.729-3.364c-25.023,0-41.865,14.257-41.865,35.243,0,21.146,13.8,33.481,41.705,35.4,18.606,1.281,28.23,6.407,28.23,17.14,0,10.093-9.624,17.782-29.995,17.782a87.973,87.973,0,0,1-41.544-10.092v15.058C391.676,221.353,404.348,224.237,421.35,224.237Zm1.444-61.836c-17.805,0-26.466-7.209-26.466-21.787s8.661-21.786,26.466-21.786,26.627,7.208,26.627,21.786S440.6,162.4,422.794,162.4Zm93.19,29.8c17.965,0,31.118-9.451,35.449-25.31h0.321l-1.765,23.068h14.918v-82.5H549.989v42.612c0,17.141-11.228,28.675-28.551,28.675-15.88,0-24.862-8.971-24.862-26.112V107.454H481.658V153.27C481.658,178.741,494.17,192.2,515.984,192.2Zm100.568,0c22.617,0,36.251-9.131,36.251-24.189,0-12.816-9.464-20.185-33.685-26.112-16.2-4.165-22.456-8.01-22.456-13.777,0-6.088,6.256-9.291,17.965-9.291,8.341,0,17.965,1.762,32.722,5.927V110.818c-16.361-4.326-24.22-5.607-33.043-5.607-21.333,0-33.043,8.17-33.043,22.908,0,12.816,8.983,20.024,32.4,26.112,16.842,4.485,23.9,8.811,23.9,15.058s-6.9,9.452-20.692,9.452c-11.389,0-22.3-2.243-34.807-7.209v13.777C594.1,189.955,605.324,192.2,616.552,192.2Zm346.311,5.262h79.517V182.63H979.03V82.129H962.863v115.33Zm125.867,2.306c17.98,0,31.51-9.556,36.62-26.032h0.33l-1.65,23.726h15.35V147.537c0-23.89-14.52-37.235-38.77-37.235-11.05,0-23.59,2.636-37.12,7.908v15.158c12.87-5.931,25.08-9.062,35.47-9.062,16.33,0,25.07,7.579,25.07,21.748h-31.34c-22.27,0-35.3,9.886-35.3,26.856C1057.39,189.386,1069.59,199.765,1088.73,199.765Zm2.48-13.839c-11.55,0-17.99-4.943-17.99-14s6.6-13.839,18.98-13.839h31.83v2.141C1124.03,174.063,1108.69,185.926,1091.21,185.926Zm75.55,44.484h15.34V188.562c9.4,7.743,19.14,11.2,31.34,11.2,28.54,0,48.34-18.617,48.34-45.143,0-26.032-17.65-44.32-42.89-44.32-18.64,0-33.16,9.886-38.27,26.032h-0.33l1.81-23.725h-15.34v117.8Zm47.18-44.484c-19.96,0-31.84-11.533-31.84-30.81,0-19.441,11.88-30.81,32-30.81s31.84,11.369,31.84,30.81C1245.94,174.393,1234.06,185.926,1213.94,185.926Zm71.1,11.533h15.34v-84.85h-15.34v84.85Zm7.59-97.866a10.343,10.343,0,0,0,10.39-10.38A10.4,10.4,0,1,0,1292.63,99.593Zm73.9,100.172c18.48,0,32.83-9.885,38.11-26.032h0.33l-1.82,23.726h15.34V78.834l-15.34,3.3v40.035a50.161,50.161,0,0,0-32.99-11.862c-27.55,0-46.85,18.782-46.85,45.473C1323.31,181.477,1341.12,199.765,1366.53,199.765Zm4.78-13.839c-20.29,0-32.17-11.533-32.17-30.975,0-19.276,11.88-30.645,32.17-30.645,19.96,0,31.84,11.369,31.84,30.645C1403.15,174.393,1391.27,185.926,1371.31,185.926Zm101.62,13.839c17.98,0,31.51-9.556,36.62-26.032h0.33l-1.65,23.726h15.34V147.537c0-23.89-14.51-37.235-38.76-37.235-11.06,0-23.59,2.636-37.12,7.908v15.158c12.87-5.931,25.07-9.062,35.47-9.062,16.33,0,25.07,7.579,25.07,21.748h-31.34c-22.27,0-35.3,9.886-35.3,26.856C1441.59,189.386,1453.79,199.765,1472.93,199.765Zm2.47-13.839c-11.54,0-17.98-4.943-17.98-14s6.6-13.839,18.97-13.839h31.84v2.141C1508.23,174.063,1492.89,185.926,1475.4,185.926Zm75.56,11.533h15.34v-44.32c0-17.135,11.88-28.833,29.2-28.833a49.287,49.287,0,0,1,13.86,1.978V110.961a47.616,47.616,0,0,0-7.92-.659c-18.81,0-31.68,9.226-36.63,26.032h-0.33l1.82-23.725h-15.34v84.85ZM371.64,324.958h9.154l1.443-5.452h12.447l1.443,5.452h9.109l-11.093-36.7H382.869ZM384.131,311.8l4.33-15.727,4.284,15.727h-8.614Zm23.854,13.159h8.7v-14c0-3.617,1.849-5.871,4.735-5.871,2.841,0,4.464,2.1,4.464,5.767v14.1h8.7V308.549c0-7.445-3.292-11.743-9.02-11.743-5,0-8.387,3.3-9.74,9.436h-0.09l0.947-8.7h-8.7v27.419ZM446,325.692c5.051,0,8.388-3.146,9.876-9.437h0.09l-0.992,8.7h8.7V309.021c0-8.231-4.1-12.215-12.311-12.215a35.337,35.337,0,0,0-11.545,2.2v8.231a20.305,20.305,0,0,1,9.425-2.673c3.743,0,5.682,1.572,5.727,4.56h-7.441c-6.042,0-9.379,2.989-9.379,8.493C438.153,322.7,441.084,325.692,446,325.692Zm3.608-7.445c-2.029,0-3.157-1.048-3.157-2.988,0-2.044,1.218-3.2,3.382-3.2h5.141v1.1A5.175,5.175,0,0,1,449.607,318.247Zm32.286,6.711h24.4v-9.384h-15.2V288.26h-9.2v36.7Zm36.211,0.734c5.05,0,8.477-3.251,9.83-9.437h0.091l-0.947,8.7h8.7V297.539h-8.7v14c0,3.617-1.849,5.872-4.871,5.872-2.8,0-4.329-1.835-4.329-5.453V297.539h-8.7v16.672C509.175,321.707,512.377,325.692,518.1,325.692Zm22.635-27.1v26.37h8.7v-26.37a9.063,9.063,0,0,1-4.329,1.153A9.552,9.552,0,0,1,540.739,298.588Zm4.375-1.94c3.021,0,5.186-1.939,5.186-4.875,0-2.884-2.165-4.823-5.186-4.823-3.067,0-5.186,1.939-5.186,4.823C539.928,294.709,542.047,296.648,545.114,296.648Zm7.259,28.31h23.811V316.57H565.361l11.364-18.716v-0.315H553.636v8.441h10.282l-11.545,18.663v0.315Zm34.315,0.734c5.051,0,8.388-3.146,9.876-9.437h0.09l-0.992,8.7h8.7V309.021c0-8.231-4.1-12.215-12.311-12.215a35.342,35.342,0,0,0-11.545,2.2v8.231a20.309,20.309,0,0,1,9.425-2.673c3.743,0,5.682,1.572,5.727,4.56h-7.44c-6.043,0-9.38,2.989-9.38,8.493C578.842,322.7,581.773,325.692,586.688,325.692Zm3.608-7.445c-2.029,0-3.157-1.048-3.157-2.988,0-2.044,1.218-3.2,3.383-3.2h5.14v1.1A5.175,5.175,0,0,1,590.3,318.247Zm32.286,6.711h9.2V312.376h3.292c3.246,0,4.96,1.573,5.907,4.98l2.21,7.6H653.2l-3.157-9.542c-1.172-3.669-3.337-5.714-8.027-6.186v-0.105c4.871-.471,9.29-3.722,9.29-10.013,0-6.92-3.878-10.852-13.258-10.852H622.582v36.7Zm13.529-18.821h-4.329v-9.646h4.554c4.149,0,5.818,1.415,5.818,4.718C642.154,304.669,640.26,306.137,636.111,306.137Zm20.335-7.549v26.37h8.7v-26.37a9.06,9.06,0,0,1-4.329,1.153A9.551,9.551,0,0,1,656.446,298.588Zm4.374-1.94c3.022,0,5.186-1.939,5.186-4.875,0-2.884-2.164-4.823-5.186-4.823-3.066,0-5.185,1.939-5.185,4.823C655.635,294.709,657.754,296.648,660.82,296.648Zm20.969,39.581c8.568,0,13.348-3.774,13.348-9.384,0-4.718-3.607-7.392-9.019-7.654v-0.1c5.322-.419,9.019-4.666,9.019-10.852,0-4.4-1.939-7.759-5.366-9.646,2.706-1.206,4.284-3.25,4.284-5.819,0-3.3-2.615-5.243-6.99-5.243a23.558,23.558,0,0,0-5.276.734v6.186a9.46,9.46,0,0,1,3.562-.734c2.165,0,3.338.892,3.338,2.622a2.814,2.814,0,0,1-.406,1.572,17.072,17.072,0,0,0-6.4-1.1c-8.3,0-13.3,4.4-13.3,11.69,0,7.183,4.51,11.377,12.807,11.691,3.878,0.21,5.592,1.154,5.592,3.46,0,2.2-1.849,3.67-6.043,3.67a23.66,23.66,0,0,1-11.725-3.093v9.384A29.751,29.751,0,0,0,681.789,336.229Zm0.09-23.014c-3.111,0-4.735-1.626-4.735-4.719s1.624-4.665,4.735-4.665,4.735,1.572,4.735,4.665S684.991,313.215,681.879,313.215Zm26.064,12.477c5.051,0,8.478-3.251,9.831-9.437h0.09l-0.947,8.7h8.7V297.539h-8.7v14c0,3.617-1.849,5.872-4.87,5.872-2.8,0-4.33-1.835-4.33-5.453V297.539h-8.7v16.672C699.014,321.707,702.216,325.692,707.943,325.692Zm36.48,0a25.365,25.365,0,0,0,10.507-2.15v-7.759a24.225,24.225,0,0,1-9.289,2.1c-3.743,0-6-1.415-6.9-4.036L756.6,311.17c-0.225-9.122-4.96-14.364-13.439-14.364-8.522,0-13.708,5.557-13.708,14.364C729.452,320.082,734.818,325.692,744.423,325.692ZM738.29,310.96v-0.1c0-4.037,1.759-6.239,5.276-6.239,3.022,0,4.6,1.573,4.871,4.666Zm22-12.372v26.37H769v-26.37a9.06,9.06,0,0,1-4.329,1.153A9.548,9.548,0,0,1,760.3,298.588Zm4.374-1.94c3.021,0,5.186-1.939,5.186-4.875,0-2.884-2.165-4.823-5.186-4.823-3.066,0-5.186,1.939-5.186,4.823C759.483,294.709,761.6,296.648,764.669,296.648ZM774,324.958h8.7V310.7c0-3.46,2.029-5.714,5.051-5.714a9.984,9.984,0,0,1,5.321,2.1V297.068a8.125,8.125,0,0,0-2.074-.262c-4.645,0-7.847,3.3-9.154,9.436h-0.091l0.947-8.7H774v27.419Zm28.68,0.734c5.051,0,8.388-3.146,9.876-9.437h0.09l-0.992,8.7h8.7V309.021c0-8.231-4.1-12.215-12.312-12.215a35.336,35.336,0,0,0-11.544,2.2v8.231a20.305,20.305,0,0,1,9.425-2.673c3.743,0,5.682,1.572,5.727,4.56h-7.441c-6.043,0-9.379,2.989-9.379,8.493C794.837,322.7,797.768,325.692,802.683,325.692Zm3.608-7.445c-2.029,0-3.157-1.048-3.157-2.988,0-2.044,1.218-3.2,3.382-3.2h5.141v1.1A5.175,5.175,0,0,1,806.291,318.247Zm36.93,7.445a5.5,5.5,0,1,0-5.5-5.5A5.242,5.242,0,0,0,843.221,325.692Zm23.719-.734h9.2v-9.279h4.735c10.507,0,15.332-4.352,15.332-13.526,0-9.279-5-13.893-15.287-13.893H866.94v36.7Zm13.89-17.772h-4.69V296.753h4.69c4.193,0,5.862,1.468,5.862,5.243C886.692,305.718,885.023,307.186,880.83,307.186Zm30.256,18.506c7.621,0,11.68-2.831,11.68-8.231,0-4.928-3.157-7.6-10.146-8.965-3.428-.786-4.645-1.572-4.645-2.831,0-1.31,1.127-1.834,3.472-1.834,2.165,0,5.231.681,9.7,2.306v-7.759a42.951,42.951,0,0,0-10.868-1.572c-7.171,0-10.823,2.726-10.823,8.021,0,5.19,3.111,7.654,10.146,9.069,3.382,0.839,4.645,1.678,4.645,3.041,0,1.153-1.173,1.782-3.923,1.782A25.35,25.35,0,0,1,899.9,316.15v7.5A33.659,33.659,0,0,0,911.086,325.692Zm15.106-27.1v26.37h8.7v-26.37a9.068,9.068,0,0,1-4.33,1.153A9.548,9.548,0,0,1,926.192,298.588Zm4.374-1.94c3.022,0,5.186-1.939,5.186-4.875,0-2.884-2.164-4.823-5.186-4.823-3.066,0-5.186,1.939-5.186,4.823C925.38,294.709,927.5,296.648,930.566,296.648Zm22.772,29.044a27.691,27.691,0,0,0,8.388-1.258v-8.546a31.17,31.17,0,0,1-7.892,1.1c-4.058,0-6.268-2.149-6.268-5.714,0-3.67,2.165-5.715,6.223-5.715a36.054,36.054,0,0,1,7.8,1v-8.546a26.658,26.658,0,0,0-7.892-1.205c-9.2,0-14.926,5.819-14.926,14.469C938.773,319.82,944.59,325.692,953.338,325.692Zm25.343,0c8.523,0,14.43-5.872,14.43-14.417s-5.907-14.469-14.43-14.469S964.3,302.73,964.3,311.275,970.158,325.692,978.681,325.692Zm0-8.283c-3.427,0-5.592-2.517-5.592-6.187,0-3.564,2.165-6.133,5.592-6.133s5.592,2.569,5.592,6.133C984.273,314.892,982.108,317.409,978.681,317.409Zm30.8,8.283a23.3,23.3,0,0,0,7.58-1.258v-8.546a19.093,19.093,0,0,1-5.24.839c-3.11,0-4.32-1.311-4.32-4.718V305.98h9.15v-8.441h-9.15v-5.976h-2.66l-0.1.315c-1.21,3.722-4.91,6.448-9.285,7.392h-0.27v6.71h3.607v8.335C998.792,322.127,1002.13,325.692,1009.48,325.692Zm24.89,0a25.383,25.383,0,0,0,10.51-2.15v-7.759a24.229,24.229,0,0,1-9.29,2.1c-3.74,0-6-1.415-6.9-4.036l17.86-2.674c-0.23-9.122-4.96-14.364-13.44-14.364-8.52,0-13.71,5.557-13.71,14.364C1019.4,320.082,1024.77,325.692,1034.37,325.692Zm-6.13-14.732v-0.1c0-4.037,1.76-6.239,5.27-6.239,3.03,0,4.6,1.573,4.87,4.666Zm22,14h8.71V310.7c0-3.46,2.03-5.714,5.05-5.714a10,10,0,0,1,5.32,2.1V297.068a8.18,8.18,0,0,0-2.08-.262c-4.64,0-7.84,3.3-9.15,9.436H1058l0.95-8.7h-8.71v27.419Zm28.68,0.734c5.05,0,8.39-3.146,9.88-9.437h0.09l-0.99,8.7h8.7V309.021c0-8.231-4.1-12.215-12.31-12.215a35.3,35.3,0,0,0-11.54,2.2v8.231a20.284,20.284,0,0,1,9.42-2.673c3.74,0,5.68,1.572,5.73,4.56h-7.44c-6.05,0-9.38,2.989-9.38,8.493C1071.08,322.7,1074.01,325.692,1078.92,325.692Zm3.61-7.445c-2.03,0-3.16-1.048-3.16-2.988,0-2.044,1.22-3.2,3.39-3.2h5.14v1.1A5.176,5.176,0,0,1,1082.53,318.247Zm18.8,17.2h8.71V322.651a11.751,11.751,0,0,0,7.93,3.041c7.13,0,11.91-5.767,11.91-14.732,0-8.6-4.28-14.154-10.69-14.154-5.05,0-8.66,3.407-10.01,9.436h-0.09l0.95-8.7h-8.71v37.9Zm14.21-18.034c-3.43,0-5.5-2.307-5.5-6.134s2.07-6.186,5.5-6.186c3.47,0,5.55,2.359,5.55,6.186S1119.01,317.409,1115.54,317.409Zm32.2,8.283a25.336,25.336,0,0,0,10.5-2.15v-7.759a24.189,24.189,0,0,1-9.29,2.1c-3.74,0-5.99-1.415-6.9-4.036l17.86-2.674c-0.22-9.122-4.96-14.364-13.44-14.364-8.52,0-13.71,5.557-13.71,14.364C1132.76,320.082,1138.13,325.692,1147.74,325.692Zm-6.14-14.732v-0.1c0-4.037,1.76-6.239,5.28-6.239,3.02,0,4.6,1.573,4.87,4.666Zm30.94,14.732c5.05,0,8.47-3.251,9.83-9.437h0.09l-0.95,8.7h8.7V297.539h-8.7v14c0,3.617-1.85,5.872-4.87,5.872-2.8,0-4.33-1.835-4.33-5.453V297.539h-8.7v16.672C1163.61,321.707,1166.81,325.692,1172.54,325.692Zm35.44,0a23.345,23.345,0,0,0,7.58-1.258v-8.546a19.093,19.093,0,0,1-5.24.839c-3.11,0-4.33-1.311-4.33-4.718V305.98h9.16v-8.441h-9.16v-5.976h-2.66l-0.09.315c-1.21,3.722-4.91,6.448-9.29,7.392h-0.27v6.71h3.61v8.335C1197.29,322.127,1200.63,325.692,1207.98,325.692Zm18.31,0c5.05,0,8.38-3.146,9.87-9.437h0.09l-0.99,8.7h8.7V309.021c0-8.231-4.1-12.215-12.31-12.215a35.3,35.3,0,0,0-11.54,2.2v8.231a20.284,20.284,0,0,1,9.42-2.673c3.75,0,5.68,1.572,5.73,4.56h-7.44c-6.04,0-9.38,2.989-9.38,8.493C1218.44,322.7,1221.37,325.692,1226.29,325.692Zm3.6-7.445c-2.03,0-3.15-1.048-3.15-2.988,0-2.044,1.21-3.2,3.38-3.2h5.14v1.1A5.176,5.176,0,0,1,1229.89,318.247ZM808.584,170l-2.212-16.218c-2.415-13.238-8.1-19.779-20.964-23.192l-16.665-3.345,16.686-3.272c12.852-3.331,18.589-9.778,21.105-22.969l2.05-14.848,2.044,14.834c2.51,13.2,8.252,19.653,21.111,22.984l16.687,3.271-16.667,3.344c-12.866,3.414-18.559,9.961-20.97,23.207L808.584,170m-0.4-103a24.511,24.511,0,0,0-12.322,3.32L765.114,87.041a24.565,24.565,0,0,0-12.221,21.193l-0.08,39.444a24.565,24.565,0,0,0,12.135,21.242l30.669,16.857a24.525,24.525,0,0,0,24.729.05l30.747-16.721a24.567,24.567,0,0,0,12.221-21.193l0.08-39.445a24.565,24.565,0,0,0-12.135-21.241L820.591,70.369A24.511,24.511,0,0,0,808.183,67M808.01,198.731a24.517,24.517,0,0,1-12.408-3.37l-39.255-23.02A24.567,24.567,0,0,1,744.212,151.1l0.094-46.312A24.564,24.564,0,0,1,756.527,83.6l39.348-22.86a24.526,24.526,0,0,1,24.729.05L859.86,83.8A24.566,24.566,0,0,1,872,105.046L871.9,151.359a24.568,24.568,0,0,1-12.22,21.192l-39.349,22.86a24.517,24.517,0,0,1-12.322,3.32M808.932,8.717h-0.151a24.509,24.509,0,0,0-12.031,3.2l-83.3,47.274A24.563,24.563,0,0,0,701.014,80.5l-0.192,94.326a24.565,24.565,0,0,0,12.349,21.367l83.106,47.613a24.527,24.527,0,0,0,24.3.05l83.3-47.273a24.567,24.567,0,0,0,12.437-21.316l0.192-94.326a24.563,24.563,0,0,0-12.349-21.366L821.05,11.962a24.514,24.514,0,0,0-12.118-3.246"/>
</svg>
